<?xml version="1.0" standalone="no"?>
<!DOCTYPE svg PUBLIC "-//W3C//DTD SVG 20010904//EN"
 "http://www.w3.org/TR/2001/REC-SVG-20010904/DTD/svg10.dtd">
<svg version="1.0" xmlns="http://www.w3.org/2000/svg"
 width="446.000000pt" height="106.000000pt" viewBox="0 0 446.000000 106.000000"
 preserveAspectRatio="xMidYMid meet">

<g transform="translate(0.000000,106.000000) scale(0.100000,-0.100000)"
fill="#000000" stroke="none">
<path d="M377 1016 c-58 -21 -73 -40 -135 -163 l-56 -113 17 -35 c21 -45 49
-55 148 -55 43 0 79 -3 79 -7 0 -5 -13 -30 -28 -58 -21 -39 -33 -51 -54 -53
-27 -3 -28 -2 -28 47 l0 51 -94 0 c-105 0 -107 -1 -149 -93 -21 -47 -21 -62 0
-98 27 -45 66 -52 242 -47 221 7 239 17 312 173 46 100 54 162 23 196 -14 16
-31 19 -110 19 -51 0 -95 4 -98 8 -2 4 8 30 22 57 20 38 33 51 53 53 23 3 26
0 22 -21 -10 -53 93 -87 171 -57 61 23 90 145 45 186 -19 17 -40 19 -183 21
-118 2 -171 -1 -199 -11z m371 -10 c18 -11 14 -52 -8 -102 l-20 -44 -85 0
c-47 0 -85 3 -85 8 1 4 7 18 15 32 25 43 19 50 -38 50 l-53 0 -42 -85 c-23
-47 -42 -87 -42 -90 0 -3 53 -5 118 -5 154 0 167 -13 118 -122 -13 -29 -33
-73 -44 -98 -23 -51 -54 -84 -95 -99 -32 -12 -376 -15 -393 -3 -27 17 -25 51
6 111 l30 61 90 0 91 0 -16 -32 c-9 -18 -20 -41 -25 -50 -9 -16 -4 -18 53 -18
l64 0 39 83 c21 45 40 85 42 90 2 4 -50 7 -115 7 -126 0 -143 5 -143 47 0 34
83 193 118 226 16 15 42 32 58 37 34 10 345 7 362 -4z"/>
<path d="M2790 1012 c-19 -9 -40 -28 -47 -42 -13 -27 -32 -139 -58 -345 -16
-119 -16 -134 -1 -168 24 -58 56 -67 231 -64 141 2 148 3 166 26 20 24 26 91
9 91 -5 0 -10 -16 -10 -35 l0 -35 -170 0 c-168 0 -171 0 -195 25 -14 13 -25
35 -25 48 0 21 41 336 55 423 3 17 17 42 31 55 24 22 33 24 176 27 84 1 154 5
157 7 2 3 -61 5 -140 5 -117 0 -151 -3 -179 -18z"/>
<path d="M4069 1003 c-6 -16 -12 -38 -13 -51 -2 -12 -5 -25 -8 -28 -4 -3 -78
-5 -166 -5 -177 2 -205 -5 -222 -52 -5 -17 -10 -115 -10 -227 0 -242 1 -245
103 -245 51 0 70 4 87 20 22 20 23 22 16 201 l-6 181 86 7 c101 7 134 -5 134
-52 1 -96 22 -267 36 -292 29 -48 69 -64 161 -65 75 0 85 2 107 25 21 21 24
30 16 60 l-8 35 -1 -37 -1 -38 -89 0 c-165 0 -168 5 -186 275 -9 136 -9 135
-55 135 -38 0 -40 2 -40 30 0 28 2 30 40 30 l40 0 -6 55 -7 54 79 4 79 3 -78
2 c-76 2 -78 2 -88 -25z m-77 -123 l5 -30 -83 0 -83 0 4 -57 c2 -32 7 -124 10
-205 l5 -148 -85 0 c-74 0 -85 2 -85 18 0 9 -3 105 -7 213 -8 254 -18 239 176
239 l139 0 4 -30z"/>
<path d="M3120 985 l0 -35 -99 0 c-114 0 -106 8 -116 -110 -3 -41 -13 -120
-21 -174 -23 -161 -32 -146 94 -144 l107 2 -97 3 c-85 3 -98 6 -98 21 0 35 40
334 45 343 4 5 40 9 81 9 90 0 114 17 114 80 0 22 -2 40 -5 40 -3 0 -5 -16 -5
-35z"/>
<path d="M4241 985 c-2 -60 8 -75 49 -75 34 0 38 -3 42 -30 4 -29 3 -30 -34
-30 -34 0 -38 -3 -38 -25 0 -23 15 -183 26 -272 l5 -43 42 1 42 2 -35 6 c-40
7 -44 18 -56 182 -6 93 -6 97 15 104 33 10 52 45 43 80 -7 25 -14 30 -44 33
-34 3 -37 6 -46 50 -8 37 -10 41 -11 17z"/>
<path d="M819 897 c-28 -19 -46 -51 -111 -197 -43 -97 -77 -190 -77 -208 -1
-43 23 -78 61 -91 40 -14 251 -14 303 0 48 13 92 52 113 99 49 114 112 307
112 345 0 72 -7 75 -199 75 -158 0 -170 -1 -202 -23z m365 7 c23 -9 20 -48 -9
-129 -101 -279 -114 -304 -172 -326 -13 -5 -93 -9 -178 -9 -215 0 -216 2 -132
194 30 66 62 143 73 169 10 27 34 62 52 78 l33 29 159 0 c87 0 165 -3 174 -6z"/>
<path d="M934 813 c-8 -21 -21 -51 -29 -68 -20 -45 -65 -155 -80 -197 l-14
-38 48 0 49 0 60 153 c34 83 64 160 68 170 5 15 0 17 -40 17 -45 0 -48 -2 -62
-37z m66 -25 c0 -7 -23 -70 -51 -140 -40 -101 -55 -128 -70 -128 -10 0 -19 4
-19 10 0 19 101 255 113 262 18 11 27 10 27 -4z"/>
<path d="M1304 901 c-17 -11 -36 -32 -42 -48 -99 -271 -122 -339 -122 -360 0
-28 25 -80 40 -85 7 -2 5 -18 -5 -48 -16 -45 -16 -45 11 -68 26 -23 32 -23
165 -20 158 3 178 12 216 89 29 59 141 452 145 509 l3 45 -190 3 c-172 2 -193
0 -221 -17z m374 -88 c-16 -54 -49 -167 -74 -251 -72 -250 -66 -245 -281 -250
-84 -2 -153 -2 -153 1 0 2 7 21 15 40 l15 36 91 3 c85 3 92 5 100 26 8 22 8
22 -96 22 -93 0 -107 2 -126 21 -25 25 -25 26 42 213 61 174 78 208 109 223
17 9 82 13 206 13 l181 0 -29 -97z"/>
<path d="M1395 733 c-22 -65 -47 -142 -56 -171 l-17 -53 51 3 51 3 16 55 c10
30 33 106 53 168 l35 112 -47 0 -47 0 -39 -117z m95 51 c0 -9 -18 -72 -41
-140 -31 -97 -44 -124 -58 -124 -10 0 -20 3 -23 6 -7 6 70 243 85 262 13 17
37 15 37 -4z"/>
<path d="M1780 893 c-26 -24 -37 -53 -81 -206 -55 -195 -57 -231 -15 -265 23
-17 23 -21 13 -66 -10 -45 -9 -50 12 -67 20 -16 41 -19 146 -19 172 0 212 19
240 114 29 98 106 471 103 501 l-3 30 -192 3 -192 2 -31 -27z m404 0 c-2 -10
-29 -130 -59 -267 -59 -271 -67 -288 -134 -305 -20 -5 -93 -10 -164 -10 l-127
-1 6 28 c3 15 7 32 9 39 3 8 35 13 97 15 88 3 93 4 96 26 3 22 1 22 -95 22
-130 0 -148 11 -140 84 3 28 15 80 25 116 11 36 32 104 46 152 36 119 33 117
263 118 168 0 181 -1 177 -17z"/>
<path d="M1914 823 c-4 -16 -24 -92 -44 -171 l-37 -143 51 3 51 3 37 160 c20
88 37 163 38 168 0 4 -20 7 -45 7 -40 0 -45 -3 -51 -27z m66 -35 c0 -26 -53
-243 -63 -255 -13 -18 -47 -16 -47 3 0 16 59 244 67 257 7 12 43 8 43 -5z"/>
<path d="M2241 888 c-26 -80 -82 -385 -76 -415 3 -19 18 -42 35 -55 28 -22 29
-25 19 -63 -10 -37 -9 -41 16 -62 24 -21 35 -23 148 -23 139 0 178 13 210 68
21 36 90 477 85 542 l-3 35 -82 3 c-72 2 -83 1 -92 -17 -6 -10 -24 -97 -41
-192 -17 -96 -35 -178 -39 -182 -15 -15 -46 -2 -45 18 0 11 13 93 29 182 15
89 25 169 22 178 -5 12 -24 15 -91 15 l-84 0 -11 -32z m175 5 c-8 -27 -66
-350 -66 -368 0 -11 12 -15 48 -15 l47 0 23 143 c13 78 28 168 34 200 l11 57
78 0 79 0 -5 -27 c-3 -16 -12 -82 -20 -148 -9 -66 -20 -147 -25 -180 -5 -33
-12 -82 -16 -110 -7 -56 -26 -95 -58 -115 -15 -10 -66 -15 -168 -18 l-148 -4
0 25 c0 54 6 57 100 57 88 0 100 5 100 41 0 5 -47 9 -105 9 -92 0 -108 3 -125
20 -11 11 -20 30 -20 43 0 20 66 367 75 395 3 8 29 12 85 12 73 0 81 -2 76
-17z"/>
<path d="M3244 885 c-8 -43 0 -65 26 -72 35 -9 21 -23 -23 -23 -82 0 -100 -32
-112 -197 -8 -107 3 -152 43 -180 24 -16 49 -18 209 -18 170 0 183 1 197 20
13 16 15 59 16 238 l0 218 -25 24 c-23 24 -28 25 -174 25 l-150 0 -7 -35z
m310 14 c13 -6 27 -21 30 -33 3 -11 6 -112 6 -223 l0 -203 -185 0 c-113 0
-193 4 -208 11 -34 15 -47 49 -42 106 3 26 7 79 9 117 5 99 16 106 157 106
l109 0 0 35 0 35 -85 0 -85 0 0 30 0 30 135 0 c78 0 144 -5 159 -11z"/>
<path d="M3330 668 c-1 -29 -3 -77 -6 -105 l-6 -53 51 0 51 0 1 63 c1 34 3 81
5 105 l4 42 -50 0 -50 0 0 -52z m65 -73 c0 -69 0 -70 -27 -73 -28 -3 -28 -3
-28 57 0 75 7 93 34 89 19 -3 21 -9 21 -73z"/>
<path d="M1812 208 c-17 -21 -18 -108 -1 -119 17 -11 70 -14 169 -10 55 3 81
9 99 22 22 17 25 18 36 3 18 -25 44 -13 78 34 46 63 33 77 -72 78 -87 1 -101
-6 -101 -55 0 -12 -7 -21 -15 -21 -10 0 -15 10 -15 29 0 16 -6 33 -12 38 -21
16 -153 16 -166 1z m116 -55 l-3 -48 -57 -1 -58 -1 0 49 0 48 61 0 60 0 -3
-47z m47 10 c0 -36 2 -38 30 -38 27 0 30 3 33 38 5 54 22 46 22 -10 0 -47 -1
-48 -33 -51 -52 -4 -77 15 -77 60 0 24 5 38 13 38 7 0 12 -14 12 -37z m235 22
c0 -18 -27 -20 -32 -3 -9 25 -28 -5 -28 -43 0 -24 -4 -38 -10 -34 -5 3 -10 21
-10 40 0 34 -14 54 -25 35 -9 -15 -25 -12 -25 5 0 12 14 15 65 15 51 0 65 -3
65 -15z"/>
<path d="M1840 155 c0 -32 2 -35 30 -35 28 0 30 3 30 35 0 32 -2 35 -30 35
-28 0 -30 -3 -30 -35z"/>
<path d="M2286 208 c-3 -7 -7 -32 -9 -55 -8 -70 1 -74 141 -74 68 1 131 5 140
10 12 6 26 5 42 -5 36 -19 103 -18 123 4 23 25 32 105 14 120 -11 10 -17 9
-27 -3 -12 -14 -15 -14 -31 1 -18 16 -20 16 -38 0 -15 -14 -20 -14 -29 -3 -15
17 -159 22 -178 6 -11 -9 -18 -9 -28 0 -11 10 -17 7 -29 -10 l-16 -21 -29 21
c-35 24 -41 26 -46 9z m92 -34 c2 14 10 26 18 26 10 0 14 -13 14 -45 0 -51 -8
-54 -56 -24 l-34 21 0 -25 c0 -14 -6 -24 -15 -24 -11 0 -15 13 -15 54 l0 53
43 -31 42 -31 3 26z m174 -9 c0 -19 1 -41 2 -47 1 -9 -17 -13 -56 -14 l-58 -1
0 49 0 48 55 0 55 0 2 -35z m61 3 l14 -33 7 33 c5 22 13 32 26 32 13 0 21 -10
26 -32 l7 -33 14 33 c12 29 33 44 33 23 0 -18 -24 -76 -34 -83 -13 -8 -36 10
-36 28 0 8 -4 14 -10 14 -5 0 -10 -8 -10 -18 0 -10 -3 -22 -6 -25 -12 -11 -42
12 -48 37 -3 14 -13 32 -22 40 -14 15 -14 16 5 16 14 0 25 -11 34 -32z"/>
<path d="M2464 176 c-12 -31 0 -51 34 -54 32 -3 33 -2 30 30 -2 28 -7 34 -31
36 -17 2 -29 -2 -33 -12z"/>
</g>
</svg>
